<?xml version="1.0" encoding="utf-8"?>
<!-- Generator: Adobe Illustrator 26.2.1, SVG Export Plug-In . SVG Version: 6.00 Build 0)  -->
<svg version="1.1" id="Layer_1" xmlns="http://www.w3.org/2000/svg" xmlns:xlink="http://www.w3.org/1999/xlink" x="0px" y="0px"
	 viewBox="0 0 276 64" style="enable-background:new 0 0 276 64;" xml:space="preserve">
<style type="text/css">
	.st0{fill-rule:evenodd;clip-rule:evenodd;fill:#FFFFFF;}
	.st1{fill:none;}
	.st2{fill:url(#SVGID_1_);}
	.st3{fill:#FFFFFF;}
</style>
<g>
	<path class="st0" d="M197.2,42.7v1.5c0,0.3-0.3,0.6-0.6,0.6l0,0h-7.1c0,0.4,0,0.7,0,1c0,2-0.1,4-0.3,6c0,0.3-0.3,0.5-0.6,0.5h-1.5
		c-0.3,0-0.5-0.3-0.5-0.6l0,0l0,0c0.2-2,0.3-3.9,0.3-5.9c0-0.3,0-0.6,0-1h-7c-0.3,0-0.6-0.3-0.6-0.6l0,0v-1.5c0-0.3,0.2-0.6,0.6-0.6
		l0,0h6.9c-0.1-2.4-0.4-4.8-0.9-7.1c0-0.3,0.1-0.5,0.4-0.6h1.8c0.3,0,0.5,0.2,0.5,0.4c0.5,2.4,0.8,4.8,0.9,7.2h7.2
		C197,42.1,197.2,42.3,197.2,42.7C197.2,42.6,197.2,42.6,197.2,42.7z"/>
	<path class="st1" d="M103.5,23.1L103.5,23.1z M103.1,23.2c-0.2,0-0.4,0-0.5-0.1C102.7,23.1,102.9,23.2,103.1,23.2h0.2H103.1z
		 M103.1,23.2c-0.2,0-0.4,0-0.5-0.1C102.7,23.1,102.9,23.2,103.1,23.2h0.2H103.1z"/>
	
		<radialGradient id="SVGID_1_" cx="-1285.4366" cy="392.836" r="2.71" gradientTransform="matrix(31.48 0 0 -31.48 40652.0586 12397.8604)" gradientUnits="userSpaceOnUse">
		<stop  offset="6.000000e-02" style="stop-color:#FFFFFF"/>
		<stop  offset="8.000000e-02" style="stop-color:#CBFFFF"/>
		<stop  offset="0.1" style="stop-color:#96FFFF"/>
		<stop  offset="0.12" style="stop-color:#68FFFF"/>
		<stop  offset="0.14" style="stop-color:#43FFFF"/>
		<stop  offset="0.17" style="stop-color:#25FFFF"/>
		<stop  offset="0.19" style="stop-color:#11FFFF"/>
		<stop  offset="0.21" style="stop-color:#04FFFF"/>
		<stop  offset="0.23" style="stop-color:#00FFFF"/>
		<stop  offset="1" style="stop-color:#0000FF;stop-opacity:0"/>
	</radialGradient>
	<path class="st2" d="M187.6,30.9C177.3,5.6,148.5-6.5,123.3,3.8c-9.1,3.7-17,10.1-22.4,18.3c-0.1,0.1-0.1,0.3-0.1,0.5
		c0.1,0.2,0.2,0.3,0.4,0.4l1.3,0.4c0.3,0.1,0.6,0,0.8-0.3c14.5-21.4,43.6-26.9,65-12.4c7.4,5.1,13.3,12.2,16.8,20.5
		c0.1,0.3,0.3,0.4,0.6,0.4h1.5c0.3,0,0.5-0.2,0.5-0.5C187.7,31,187.7,30.9,187.6,30.9L187.6,30.9z M102.6,23.1L102.6,23.1
		L102.6,23.1L102.6,23.1L102.6,23.1z"/>
	<path class="st3" d="M119.5,33.1c0,0,0.4-0.5,0.7-1c0.7-0.9,1.5-1.7,2.3-2.5l0.5-0.4c0,0-0.4,0-0.7,0.1c-0.7,0.2-1.3,0.5-1.9,1
		c-0.7,0.6-1.5,1.6-1.1,2.4L119.5,33.1L119.5,33.1z M123.4,34.1c1.1-0.1,2.2-0.4,3.1-0.9c1-0.5,2.3-1.6,2.2-2.8
		c0-0.4-0.3-0.7-0.6-0.8c-0.4-0.2-0.8-0.2-1.2,0c-0.3,0.1-0.6,0.2-0.9,0.4c-1.3,0.8-2.5,1.9-3.5,3.1c-0.2,0.2-0.4,0.5-0.5,0.7
		s-0.2,0.2-0.2,0.3C122.3,34.2,122.8,34.2,123.4,34.1L123.4,34.1z M120.6,36.2c-0.1,0.2-0.3,0.4-0.4,0.6c-0.1,0.1-0.2,0.2-0.3,0.3
		c-0.2,0.2-0.6,0.2-0.8,0c-0.4-0.4-0.6-0.9-0.6-1.4c0-0.2,0-0.4,0-0.7c-0.1-0.4-0.3-0.7-0.6-1c-0.2-0.4-0.4-0.9-0.4-1.4
		c0-1.3,0.5-2.5,1.5-3.4c0.9-1,2-1.7,3.3-2.2c1.3-0.6,2.8-0.7,4.2-0.4c0.5,0.2,1,0.5,1.3,0.9c0.1,0.1,0.1,0.1,0.2,0.2
		c0.1,0,0.2,0.1,0.3,0.1c0.5,0.1,0.9,0.3,1.3,0.6c0.4,0.4,0.8,0.9,0.9,1.4c0.1,1.2-0.3,2.4-1.2,3.3c-1.2,1.3-2.7,2.3-4.3,3
		c-0.9,0.3-1.8,0.5-2.8,0.5c-0.3,0-0.5-0.1-0.8-0.1C121.2,36.5,121,36.4,120.6,36.2C120.7,36.2,120.6,36.2,120.6,36.2L120.6,36.2z
		 M122.1,38.8c0.1,0,0.1,0,0.2,0.1c0.5,0.3,0.9,0.8,1,1.4c0.3,1.9,0.5,3.8,0.5,5.7c0,0.9,0.1,1.8,0.1,2.7c0.1,0.8,0,1.7-0.1,2.5
		c-0.1,0.3-0.2,0.5-0.5,0.7c-0.4,0.2-0.9,0.2-1.3,0.1c-0.9-0.2-1.2-0.7-1.3-1.6c-0.2-2.6-0.2-5.2,0-7.8c0.1-1.1,0.3-2.1,0.6-3.1
		C121.5,39.2,121.7,38.7,122.1,38.8L122.1,38.8z M95.3,41.9c0,0-1.3,0.1-2.2,0.2c-1.5,0.2-3,0.5-4.5,0.9c-0.4,0.1-1.1,0.4-1.2,0.8
		c0,0.4,0.2,0.7,0.4,1c0.2,0.2,1,1,1.3,1.2c1.4,1.1,3,2.1,4.7,2.8c0.5,0.2,1.4,0.5,1.4,0.5s-0.1-2.5,0-5
		C95.3,43.1,95.3,41.8,95.3,41.9L95.3,41.9z M118.9,42.9c0,0.7,0,1.4-0.1,2.1c-0.1,0.5-0.2,0.9-0.4,1.4c-0.2,0.5-0.4,1-0.7,1.4
		c-0.6,0.9-1.2,1.7-2,2.5c-2.5,1.9-5.5,3.1-8.6,3.4c-2.1,0.3-4.3,0.2-6.4-0.2l-1.8-0.4c0,0.2,0,0.5,0,0.7s-0.1,0.4-0.2,0.6
		c-0.1,0.3-0.4,0.5-0.8,0.5c-0.5,0.1-0.9,0.1-1.4,0c-0.6-0.3-1-1-1-1.6c-0.1-0.6-0.2-1.6-0.2-1.6l-0.9-0.4c-1.3-0.6-2.5-1.4-3.6-2.2
		c-0.6-0.5-1.2-1-1.8-1.6c-0.8-0.7-1.5-1.5-2-2.5c-0.4-0.7-0.5-1.5-0.2-2.2c0.4-1.1,2-1.9,3.1-2.4c1.4-0.6,2.8-1,4.3-1.3
		c0.5-0.1,1.2-0.2,1.3-0.2l0,0c0,0,0.1-1.1,0-1.5s0.3-3,0.4-3.5c0.1-0.6,0.3-1.2,0.5-1.7c0.2-0.2,0.4-0.2,0.6,0
		c1.2,0.7,1.5,3.3,1.6,4.6c0,0.8,0.1,2,0.1,2s1.3,0,2.2,0c0.8,0,1.7,0.1,2.5,0.3c1.5,0.2,3,0.6,4.4,1.2c1,0.5,1.8,1.2,2.2,2.2
		c0.3,0.7,0.2,1.5-0.2,2.1c-0.5,0.8-1.3,1.4-2.3,1.5c-0.6,0-1.1-0.1-1.6-0.4c-0.1-0.1-0.1-0.3,0-0.4l0,0l0,0c0,0,0.5-0.3,0.8-0.4
		c0.1-0.1,0.3-0.2,0.4-0.3c0.2-0.2,0.4-0.4,0.4-0.7s-0.4-0.5-0.8-0.7c-2.1-0.7-4.3-1.1-6.5-1.3l-1.5-0.1l0.2,8.7l1.3,0.2
		c0.3,0,1.7,0.2,2.1,0.2c2.9,0.2,5.8-0.3,8.6-1.4c1.1-0.5,2.2-1.2,3-2.1c1.1-1.3,1.6-2.9,1.4-4.5c-0.4-2-1.2-3.9-2.5-5.4
		c-2.8-3.5-7.5-6.5-11.7-8.2c-4.1-1.7-8.5-2.7-13-2.9c-1.7-0.1-3.4,0.1-5,0.4l-0.5,0.1c-0.1,0-0.3,0.1-0.4,0.2l-0.1,0.1
		c0,0,0.1,0.1,0.2,0.1c0.1,0.1,0.7,0.1,1,0.1s0.5,0.2,0.7,0.4c0.1,0.1,0.1,0.3,0,0.5c-0.3,0.4-1.4,0.3-1.9,0.2s-1.1-0.2-1.2-0.7
		s0.1-1.1,0.4-1.5c0.5-0.9,1.4-1.5,2.4-1.7c1.7-0.4,3.4-0.7,5.1-0.8c3.3-0.1,6.6,0.4,9.8,1.4c2.1,0.6,4.1,1.4,6.1,2.4
		c1.5,0.7,3,1.6,4.5,2.5c0.4,0.2,2.5,1.8,2.8,2.1c0.7,0.5,1.6,1.3,2.2,2c1.4,1.4,2.6,2.9,3.6,4.6c0.2,0.4,0.3,0.7,0.6,1.1
		c0.2,0.4,0.3,0.8,0.5,1.2c0.1,0.2,0.1,0.6,0.2,0.6C118.8,42.1,118.8,42.5,118.9,42.9L118.9,42.9z M133.4,43.5L133.4,43.5
		c1.1,0.1,2,0.3,2.9,0.7c0.7,0.3,1.2,0.8,1.5,1.4c1.1,2,0.3,4.4-1.6,5.5c-0.1,0.1-0.2,0.1-0.4,0.2c-0.8,0.4-1.6,0.6-2.5,0.7
		c-1.7,0.2-3.3-0.1-4.8-0.9c-1-0.4-1.9-1.2-2.4-2.1c-0.4-0.7-0.4-1.6,0.1-2.2c0.8-1,2.4-1.3,3.6-1.2s2.4,0.3,3.5,0.6
		c0.5,0.2,0.9,0.4,1.3,0.6c0.1,0.1,0.2,0.3,0.1,0.4c-0.2,0.6-1.7,1-2.1,1c-1.2,0.2-1.8-0.3-3.1-0.8c-0.4-0.1-0.7-0.2-1.1-0.3
		c-0.6-0.1-1.3,0.1-1.4,0.8c0,0.3,0.3,0.7,0.6,0.8c0.6,0.3,1.3,0.4,2,0.4c2.1,0.1,4.3-0.4,6.1-1.5c0.3-0.1,0.4-0.4,0.5-0.7
		c0,0,0-0.4-0.2-0.4l0,0c0,0-0.1-0.1-0.2-0.2c-0.2-0.2-0.5-0.3-0.7-0.4c-1.4-0.4-2.8-0.7-4.3-0.8c-1.1-0.1-2.9-0.2-3.3-0.3
		c-0.4,0-0.9-0.2-1.3-0.3c-0.4-0.2-0.7-0.6-0.9-1c-0.2-0.8,0-1.7,0.5-2.3c1.1-1.6,3.8-2.2,5.7-2.5s5-0.2,6.9,0.8
		c0.3,0.2,0.4,0.3,0.4,0.6c-0.1,0.5-0.5,1-1.1,1.1c-0.7,0.2-1.5,0.2-2.2,0.3c-2.4,0-4.8,0.2-7.2,0.7c-0.2,0-0.4,0.1-0.6,0.2
		c-0.3,0.4,0.6,0.5,0.8,0.5h0.1L133.4,43.5L133.4,43.5z M140.5,52c-0.9-0.3-1.1-1.8-1.2-2.5c0-2.7,0.4-5.5,1.3-8.1
		c0.2-0.7,0.6-1.7,1.3-1.7c0.5,0.1,0.9,0.4,1.1,0.8c0.8,1.1,1.5,2.2,2.3,3.3s1.4,2.1,2,3.1c0.1,0.1,0.2,0.2,0.2,0.3
		c0.1,0.1,0.2,0.1,0.3,0c0-0.5,0-1,0-1.5c-0.1-0.4-0.1-0.7-0.1-1c-0.2-1.1-0.4-2.2-0.7-3.3c-0.3-1-0.6-2.1-0.9-3.1
		c-0.1-0.3-0.1-0.7-0.1-1s0.1-0.5,0.4-0.6c0.1,0,0.2,0,0.3,0.1c0.9,0.3,2.2,2.3,2.5,3c0.1,0.2,0.6,1.4,0.7,1.8
		c0.4,1.1,0.6,2.3,0.7,3.5c0.1,1.4,0,2.9-0.5,4.2c-0.2,0.5-0.5,1-0.9,1.3c-0.6,0.6-1.5,0.7-2.2,0.5c-0.9-0.9-1.7-1.9-2.2-3
		c-0.7-1.3-2-3.8-2.2-4c-0.1-0.1-0.1-0.1-0.2-0.2c-0.1,0-0.1,0.1-0.1,0.2c-0.1,0.7-0.2,4.1-0.2,4.2c0,0.9-0.1,1.8-0.2,2.7
		c-0.1,0.5-0.2,0.8-0.6,1C141.1,52.2,140.7,52.1,140.5,52L140.5,52z M153,51.6c-0.1-0.1-0.3-0.2-0.4-0.4c-0.1-0.2-0.3-0.4-0.4-0.7
		c-0.1-0.1-0.1-0.2-0.1-0.3c-0.3-0.8-0.3-1.6-0.1-2.4c0.2-0.6,0.4-1.3,0.7-1.9c0-0.1,0-0.1,0-0.2c0-0.2-0.2-1.1-0.2-1.4
		c0-0.5,0.4-0.8,1-0.9h0.1c0.2-0.1,0.4-0.5,0.6-0.9l0.5-1.3c-0.4-0.1-0.8-0.2-1.2-0.3s-0.8-0.4-1-0.8c-0.2-0.5-0.1-0.8,0.4-1
		c0.2-0.1,1.7-0.4,2.2-0.4l1.8-0.2c0.5-0.1,2.8-0.3,3.5-0.3c1,0,2,0.5,2.5,1.4c0.4,0.5,0.6,1.1,0.1,1.4c-0.8,0.5-3.4,0.5-3.9,0.5
		h-1.8l-0.5,1.8h2.9c0.2,0,0.4,0,0.6,0c0.5,0.1,0.7,0.5,0.8,1.1s-0.1,1-0.7,1.1c-0.3,0-3.5,0.1-4,0.1l-0.6,0.1c0,0-0.2,0.6-0.4,1.2
		s-0.4,1.3-0.4,1.3h0.3c0.2,0,0.4,0,0.6-0.1c1-0.2,2.4-0.4,3.6-0.6c0.6-0.1,1-0.2,1.3,0.3c0.3,0.3,0.5,0.7,0.5,1.2
		c0,0.4-0.3,0.7-0.7,1c-1.5,1.1-3.2,1.9-5,2.2c-0.5,0.1-1.1,0-1.6-0.2c-0.2-0.1-0.4-0.2-0.6-0.3C153.4,51.8,153.1,51.7,153,51.6
		L153,51.6z M173.4,42.8c-0.9,0.9-1.7,1.8-2.4,2.8s-1.3,2.1-2,3c-0.2,0.3-0.4,0.6-0.5,0.9c0.3,0.1,0.6,0.1,0.8,0
		c1-0.2,1.9-0.7,2.7-1.3c1-0.8,1.7-1.9,2-3.1c0.2-0.8,0.1-1.6-0.2-2.3C173.7,42.8,173.5,42.8,173.4,42.8L173.4,42.8z M166.8,52.8
		c0,0-0.3,0.8-0.4,1.4c-0.3,1-1.1,3.9-1.2,4.7c-0.2,1.3-1,4.7-1,4.8s-0.1,0.2-0.2,0.2c-0.3,0.2-0.4,0.1-0.8-0.1
		c-0.5-0.2-0.9-0.6-1.2-1c-0.7-0.9-0.5-2.7-0.4-3.7c0.4-3,1.2-5.9,2.3-8.7v-0.1c-0.4-0.9-0.6-1.9-0.6-2.9c0-2.8,1.6-5.5,3.4-7.7
		c0.1-0.2,1-1.2,1.4-1.2s0.5,0.5,0.4,0.9c-0.4,1.3-0.9,2.6-1.7,3.7c-0.5,0.9-0.9,1.8-1.2,2.8c-0.1,0.4-0.2,0.7-0.2,1.1
		c0,0.3,0.1,0.7,0.1,0.7s1.1-1.6,1.9-2.6c0.4-0.5,0.7-0.9,1-1.3c0.7-0.7,1.4-1.4,2-2.1c0.6-0.6,1.3-1.1,2-1.5c0.6-0.4,1.4-0.4,2,0
		c1,0.8,1.6,2.1,1.6,3.4c0.1,1.5-0.1,2.9-0.8,4.3c-0.7,1.4-1.8,2.6-3.2,3.4c-1.4,1-3,1.5-4.7,1.5L166.8,52.8L166.8,52.8z"/>
</g>
</svg>
